<?xml version="1.0" encoding="UTF-8"?>
<svg id="Layer_1" xmlns="http://www.w3.org/2000/svg" version="1.1" viewBox="0 0 420.94 595.28">
  <!-- Generator: Adobe Illustrator 29.8.3, SVG Export Plug-In . SVG Version: 2.1.1 Build 3)  -->
  <defs>
    <style>
      .st0 {
        fill: #fff;
      }
    </style>
  </defs>
  <g>
    <path class="st0" d="M-114.43-133.04c.39,0,.77.03,1.15.03.41,0,.79-.03,1.2-.03v.28h-.12c-.58,0-1.08.42-1.44.83l-1.42,1.59,2.3,3c.19.28.48.51.82.51v.28c-.31,0-.61-.02-.92-.02-.28,0-.56.02-.85.02-.08-.18-.34-.55-.47-.7l-1.93-2.51,1.88-2.18c.12-.12.4-.44.4-.63s-.39-.2-.51-.2h-.1v-.28ZM-118.07-126.83h.13c.32,0,.67-.04.67-.53v-4.88c0-.49-.34-.53-.67-.53h-.13v-.28c.36,0,.9.03,1.36.03s1.06-.03,1.42-.03v.28h-.11c-.27,0-.74,0-.74.53v4.88c0,.52.47.53.74.53h.11v.28c-.36,0-.95-.04-1.42-.04s-.99.04-1.36.04v-.28Z"/>
    <path class="st0" d="M-107.15-128.18l2.12-4.86c.27,0,.6.03.92.03s.63-.03.95-.03v.28h-.08c-.27,0-.82.02-.84.42,0,.25.03.53.05.73l.34,4.26c.03.47.26.5.79.52v.28c-.42-.02-.85-.04-1.29-.04-.49,0-.98.02-1.48.04v-.28c.46-.03.77-.03.77-.44,0-.11,0-.21-.02-.45l-.25-3.93h-.01l-2.29,5.24h-.21l-2.16-5.14h-.02l-.3,4.09c0,.3.07.44.19.53.14.08.32.09.57.1h.11v.28c-.4-.02-.81-.04-1.21-.04-.36,0-.71.02-1.06.04v-.28h.12c.71-.03.74-.34.82-1.01l.26-2.59c.07-.66.11-1.26.11-1.64,0-.53-.39-.7-.78-.7h-.11v-.28c.36,0,.72.03,1.09.03.27,0,.54-.03.8-.03l2.1,4.86Z"/>
    <path class="st0" d="M-101.96-132.09c0-.67-.33-.68-.69-.68h-.11v-.28c.38,0,.86.03,1.42.03s.99-.03,1.34-.03v.28h-.11c-.36,0-.71.01-.71.68v3.21c0,1.18.42,2,1.7,2,1.18,0,1.71-.78,1.71-2.04v-3.17c0-.67-.35-.68-.66-.68h-.17v-.28c.36,0,.73.03,1.07.03s.69-.03,1.04-.03v.28h-.19c-.24,0-.57.01-.57.68v2.97c0,2.11-1.08,2.71-2.41,2.71-1.72,0-2.68-.65-2.68-2.32v-3.36Z"/>
    <path class="st0" d="M-114.89-143.92c.87-.21,2.2.16,3.39.2,1.2.04,3.37-.17,5.35.66,1.98.82,1.89,1.75,3.51,2.58,1.63.83,2.51.9,3.24,1.21.73.32,2.03,1.34,2.57,3.1.5,1.63,1.27,2.31,2.82,2.16-3.03-6.57-9.47-11.1-16.95-11.1-3.37,0-6.52.92-9.26,2.52.94-.18,2.71,0,3.71-.59.83-.49,1.16-.63,1.6-.74"/>
    <path class="st0" d="M-113.27-107.34c1.47-.81,2.46-2.04,3-3.35.37-.89.76-1.71,1.14-2.17h0c.6-.74,1.2-1.11,2-1.24,1.37-.21,2.5.77,4.56.58-1-.3-1.29-.56-1.85-.88-1.33-.77-2.14-1.05-3.35-.93-1.81.18-2.1.99-4,1.5-2.15.58-3.6-.07-4.7-1.01-1.12-.96-1.33-2.29-2.76-3.02-1.16-.6-1.88-.29-3.52-.79-.61-.19-1.03-.37-1.76-.74,1.58,1.4,2.66,1.88,3.53,2.65,1.51,1.34,1.06,2.61,3.53,4.46,1.49,1.12,4.56,1.86,7.8.22-1.43,1.29-4.37,2.95-8.79,1.78-6.66-1.77-10.53-9.07-11.27-16.31,0,0-.03.65-.02,1.4.11,8.07,5.05,15.12,12.13,17.92,0,0,2.55.99,4.34-.05"/>
    <path class="st0" d="M-94.33-124.49c-1.76,2.28-2.91,1.61-4.36,3.34-.06-1.72.72-3.07,1.55-3.63,1.53-1.02,3.69-2.54,3.8-7.65.64,1.68,1.08,5.28-.98,7.94"/>
    <path class="st0" d="M-102.57-113.53c-1.85.58-2.33-.21-3.53.18-.98.31-1.57.97-2.04,3.07-.25,1.12-.93,2.09-2.08,2.81-1,.61-2.55,1.11-3.98,1.14.06.01,1.51.3,3.26.3,10.49,0,18.86-8.9,18.78-19.64-2.29,10.04-7.61,12.51-10.42,12.14"/>
    <path class="st0" d="M-99.21-115.77c.75-1.18.6-3.12.52-5.38-2.55,3.11-.84,6.22-3.87,7.62,1.37-.18,2.45-.79,3.36-2.24"/>
    <path class="st0" d="M-126-125.74c-.17-2.34-2.12-4.56-1.3-7.29.37-1.25,1.92-1.73,1.18-4.09-1.77,2.48-3.01,5.55-3.45,8.85.57,2.49,1.21,4.08,2.36,5.94.73,1.17,1.37,1.86,2.23,2.49-.42-.67-.84-1.24-1.1-2.21-.56-2.17.19-1.99.08-3.69"/>
  </g>
  <g>
    <path class="st0" d="M-277.4-110.78s4.03.35,7.23-1.15c.75-.29,1.45-.73,2.06-1.34.87-.87,1.41-1.95,1.63-3.07,0,0,0,0,0,0,.07-.37.1-.74.1-1.11v-20.29h-.03c-1.52,0-3.03.58-4.19,1.74-1.16,1.16-1.74,2.68-1.74,4.19v12.33c-.03,1.59-.48,7.22-5.06,8.7M-276.28-117.23c-.69.26-1.45.4-2.28.4-3.52,0-5.52-2.25-5.52-6.25v-14.66c-1.51,0-3.02.58-4.18,1.74-1.16,1.16-1.74,2.68-1.74,4.19v6.26c.07,1.67.6,5.48,3.78,8.14.99.78,2.21,1.37,3.72,1.55,2.52.3,4.65-.18,6.22-1.36M-275.82-113.26c1.56-1.79,2.13-3.84,2.27-5.54v-.16c-.43.95-1.03,1.78-1.8,2.46-1.46,1.29-3.41,1.96-5.7,1.96-.5,0-1.01-.03-1.54-.09-4.17-.5-6.36-3.79-7.4-6.12.05,5.43,2.89,9.11,7.8,9.68,1.42.09,4.47,0,6.37-2.19M-268.05-141.74c0,.86-.46,1.61-1.15,2.02-.69-.41-1.15-1.16-1.15-2.02s.46-1.61,1.15-2.02c.69.41,1.15,1.16,1.15,2.02M-265.84-141.69c0-.6-.15-1.16-.42-1.65-.58-1.05-1.7-1.77-2.99-1.77-1.42,0-2.64.87-3.15,2.11-.17.4-.26.84-.26,1.31,0,.37.06.73.17,1.07.45,1.36,1.73,2.35,3.24,2.35,1.37,0,2.55-.81,3.1-1.98.2-.44.32-.92.32-1.44"/>
    <path class="st0" d="M-212.32-142.99v2.95h.29v-1.44c0-.2.02-.34.04-.43.02-.09.06-.19.11-.29.06-.15.16-.29.29-.42.13-.13.28-.2.46-.2.28,0,.47.09.57.27.1.18.15.43.15.74v1.77h.29v-1.93c0-.38-.08-.66-.24-.85-.16-.19-.41-.27-.75-.25-.2,0-.37.07-.53.16-.16.09-.3.25-.42.5v-.59h-.26ZM-214.35-142.8c.13,0,.25.03.37.1.12.06.22.15.31.27.09.12.16.25.21.42.05.16.07.33.07.53s-.03.37-.07.53-.12.3-.2.41c-.08.12-.2.2-.32.27-.12.06-.25.09-.4.09s-.29-.03-.41-.1c-.12-.06-.22-.15-.31-.26-.09-.12-.16-.25-.2-.41-.05-.16-.07-.34-.07-.54s.02-.37.07-.53c.05-.16.12-.3.21-.41.09-.12.2-.21.32-.27.12-.06.26-.09.41-.09M-214.35-143.07c-.2,0-.37.04-.54.11-.16.07-.3.18-.41.31-.12.14-.21.31-.27.5-.06.2-.1.42-.1.67,0,.49.12.87.35,1.15.23.28.55.41.95.41.2,0,.37-.04.53-.12.16-.07.3-.19.41-.33.11-.14.2-.3.26-.5.06-.19.09-.4.09-.62,0-.25-.04-.47-.11-.67-.07-.2-.16-.36-.28-.49-.12-.13-.26-.24-.41-.31-.15-.07-.31-.11-.48-.11M-216.73-140.04h.29v-3.34h-.29v3.34ZM-216.73-143.87h.29v-.32h-.29v.32ZM-217.76-140.19c-.11,0-.19,0-.25-.03-.05-.02-.09-.05-.12-.09-.03-.04-.04-.1-.04-.17,0-.07,0-.16,0-.27v-1.93h.57v-.26h-.57v-.92h-.29v.92h-.48v.26h.48v2.16c0,.22.05.38.14.46.09.08.24.13.44.13.07,0,.13,0,.17,0,.04,0,.07,0,.11-.02v-.25h-.16ZM-219.75-141.09c0,.12,0,.21-.02.28,0,.07-.04.14-.07.21-.1.14-.23.24-.39.31-.15.06-.32.11-.5.13-.12.02-.22.01-.3-.02s-.15-.07-.2-.13c-.05-.06-.09-.13-.11-.21-.02-.08-.03-.16-.03-.25,0-.2.07-.35.21-.45.13-.09.36-.17.67-.21.18-.03.33-.06.44-.1.11-.04.21-.11.29-.21v.65ZM-219.15-140.26c-.11,0-.19-.03-.23-.09s-.06-.15-.06-.27v-1.46c0-.21-.02-.36-.06-.47-.04-.1-.09-.19-.16-.26-.09-.09-.21-.15-.35-.2s-.29-.07-.46-.07c-.35,0-.62.09-.8.25-.19.16-.28.39-.29.66h.3c.04-.2.11-.36.23-.47.12-.11.3-.16.55-.17.22,0,.4.05.53.15.13.1.19.26.19.47,0,.12-.05.22-.16.32-.11.09-.25.14-.42.17l-.41.07c-.07.01-.15.03-.22.05-.07.02-.14.03-.2.05-.17.06-.29.16-.38.29-.09.13-.13.3-.13.5,0,.26.07.46.22.6.14.14.35.21.61.21.2,0,.39-.03.6-.1.2-.06.37-.19.53-.36,0,.09.04.17.1.24s.13.12.23.14c.03,0,.07,0,.11,0,.04,0,.09,0,.13,0v-.28ZM-223.91-142.98h-.32l1.01,2.95h.36l.99-2.95h-.29l-.87,2.69c-.05-.16-.09-.28-.13-.39-.04-.11-.06-.2-.1-.29-.03-.09-.06-.17-.09-.24-.03-.07-.04-.16-.07-.25l-.5-1.52ZM-225.77-142.8c.13,0,.26.03.37.1.12.06.22.15.31.27.09.12.16.25.21.42.05.16.07.33.07.53s-.03.37-.07.53c-.05.16-.12.3-.2.41s-.2.2-.32.27c-.12.06-.25.09-.4.09s-.29-.03-.41-.1c-.12-.06-.22-.15-.31-.26-.09-.12-.16-.25-.2-.41-.05-.16-.07-.34-.07-.54s.02-.37.07-.53c.05-.16.12-.3.21-.41.09-.12.2-.21.32-.27.12-.06.26-.09.41-.09M-225.77-143.07c-.2,0-.37.04-.54.11-.16.07-.3.18-.41.31-.12.14-.21.31-.27.5-.06.2-.09.42-.09.67,0,.49.12.87.35,1.15.23.28.55.41.95.41.2,0,.37-.04.53-.12.16-.07.3-.19.41-.33.11-.14.2-.3.26-.5.06-.19.09-.4.09-.62,0-.25-.04-.47-.11-.67-.07-.2-.16-.36-.28-.49-.12-.13-.25-.24-.41-.31-.15-.07-.31-.11-.48-.11M-230.02-142.99v2.95h.29v-1.44c0-.2.02-.34.04-.43.02-.09.06-.19.11-.29.06-.15.16-.29.29-.42.13-.13.28-.2.46-.2.28,0,.47.09.57.27.1.18.15.43.15.74v1.77h.29v-1.93c0-.38-.08-.66-.24-.85-.16-.19-.41-.27-.75-.25-.2,0-.37.07-.53.16s-.3.25-.42.5v-.59h-.25ZM-233.13-142.99v2.95h.29v-1.44c0-.2.02-.34.04-.43.02-.09.06-.19.11-.29.06-.15.16-.29.29-.42.13-.13.28-.2.46-.2.28,0,.47.09.57.27.1.18.15.43.15.74v1.77h.29v-1.93c0-.38-.08-.66-.24-.85-.16-.19-.41-.27-.75-.25-.2,0-.37.07-.53.16s-.3.25-.42.5v-.59h-.25ZM-234.37-140.04h.29v-3.34h-.29v3.34ZM-234.37-143.87h.29v-.32h-.29v.32ZM-236.84-143.02l-.55,1.74-.35.95-.29-.91-.61-1.79h-.34l1.11,3.02c-.11.35-.2.58-.29.73-.08.14-.2.21-.34.21h-.12s-.05,0-.08,0l-.03-.02v.24s.07.02.12.02c.04,0,.08,0,.12,0,.12,0,.22-.03.3-.09.08-.05.16-.13.25-.23.02-.04.04-.09.06-.13.02-.04.05-.09.07-.16.03-.07.06-.16.11-.27.04-.11.09-.25.15-.42l1.02-2.91h-.31ZM-239.72-140.19c-.11,0-.19,0-.24-.03-.05-.02-.09-.05-.12-.09-.03-.04-.04-.1-.04-.17,0-.07,0-.16,0-.27v-1.93h.57v-.26h-.57v-.92h-.29v.92h-.48v.26h.48v2.16c0,.22.05.38.14.46.09.08.24.13.44.13.07,0,.13,0,.17,0,.04,0,.07,0,.11-.02v-.25h-.16ZM-241.71-140.04h.29v-3.34h-.29v3.34ZM-241.71-143.87h.29v-.32h-.29v.32ZM-242.57-142.23c-.02-.27-.12-.48-.29-.62-.17-.14-.43-.21-.76-.21s-.56.07-.74.22c-.17.14-.26.35-.26.62,0,.13.03.24.09.33.05.09.13.15.23.2.03.03.06.05.09.06.03.02.07.03.12.05.05.02.12.05.21.07.09.03.2.06.35.11.29.09.49.18.6.26.12.08.18.2.18.35,0,.18-.07.32-.23.43-.16.11-.34.17-.56.17-.25,0-.46-.05-.61-.15s-.22-.27-.2-.5h-.33c0,.31.09.55.29.7.19.16.46.23.83.23s.63-.08.82-.25.29-.39.29-.69c0-.11-.03-.21-.09-.3-.06-.09-.13-.16-.23-.23-.09-.07-.21-.13-.33-.18-.13-.05-.26-.09-.4-.14-.16-.05-.3-.09-.41-.13-.11-.04-.19-.07-.25-.12-.06-.04-.1-.09-.13-.14-.02-.05-.03-.12-.03-.2,0-.15.06-.27.19-.37.13-.09.29-.14.5-.14.27,0,.46.05.56.16.1.1.16.23.17.41h.32ZM-244.87-143.09c-.1,0-.2.02-.29.05-.09.03-.18.08-.26.15-.09.07-.18.17-.26.29-.08.12-.17.28-.26.46v-.85h-.27v2.95h.29v-1.41c0-.19.03-.35.09-.47.05-.12.13-.26.24-.4.07-.1.16-.19.28-.28.11-.09.24-.13.37-.13h.02s.02.01.04.02v-.38ZM-248.16-142.8c.25,0,.46.09.63.29.16.19.26.46.29.8h-1.85c.04-.36.14-.63.3-.82.16-.18.37-.27.63-.27M-247.26-140.86c-.05.21-.15.38-.29.49-.14.12-.32.17-.54.17-.31,0-.55-.11-.73-.31-.18-.21-.26-.52-.25-.95h2.15c0-.15-.01-.3-.03-.44-.02-.13-.04-.26-.09-.38-.09-.26-.24-.46-.43-.6-.19-.14-.41-.21-.66-.21-.19,0-.36.04-.52.12-.15.07-.28.18-.39.32-.11.14-.2.31-.25.5-.06.2-.09.41-.09.64,0,.5.11.89.33,1.16.22.27.53.4.93.4.33,0,.59-.09.78-.25.19-.16.31-.39.38-.69h-.29ZM-251.69-142.98h-.32l1.01,2.95h.36l.99-2.95h-.29l-.87,2.69c-.05-.16-.09-.28-.13-.39-.04-.11-.06-.2-.09-.29-.03-.09-.06-.17-.09-.24-.03-.07-.04-.16-.07-.25l-.5-1.52ZM-252.88-140.04h.29v-3.34h-.29v3.34ZM-252.88-143.87h.29v-.32h-.29v.32ZM-256-142.99v2.95h.29v-1.44c0-.2.02-.34.04-.43.02-.09.06-.19.11-.29.06-.15.16-.29.29-.42.13-.13.28-.2.46-.2.28,0,.47.09.57.27.1.18.15.43.15.74v1.77h.29v-1.93c0-.38-.08-.66-.24-.85-.16-.19-.41-.27-.75-.25-.2,0-.37.07-.53.16-.16.09-.3.25-.42.5v-.59h-.26ZM-259.54-144.17h-.3v2.45c0,.3.02.54.05.71.03.16.09.31.16.44.12.23.28.4.49.5.21.1.48.15.81.15.3,0,.55-.04.76-.12.2-.07.37-.21.5-.4.05-.07.08-.15.11-.23.03-.08.06-.16.08-.27.02-.1.04-.21.05-.33,0-.12.01-.27.01-.44v-2.46h-.3v2.46c0,.14,0,.26,0,.36,0,.1-.02.19-.03.27-.01.08-.03.15-.05.21-.02.06-.04.12-.07.18-.09.16-.22.29-.4.37-.18.08-.4.12-.66.12-.24,0-.45-.05-.64-.14-.19-.09-.32-.22-.4-.38-.07-.12-.11-.26-.13-.41-.02-.15-.03-.34-.03-.57v-2.46Z"/>
    <path class="st0" d="M-216.8-113.16h4.4v1.4h-4.4v-1.4ZM-218.93-115.84v3.88c0,.81.6,1.37,1.5,1.37h7.16v-5.26h-2.13v1.51h-4.4v-1.51h-2.13ZM-217.65-122.03c.82,0,1.5.9,1.5,2.04s-.69,2.04-1.5,2.04-1.48-.9-1.48-2.04.69-2.04,1.48-2.04M-212.26-123.2v2.48h-1.84c-.38-1.43-1.81-2.48-3.55-2.48-1.99,0-3.61,1.43-3.61,3.2s1.62,3.2,3.61,3.2c1.84,0,3.34-1.2,3.6-2.76h1.8v2.9h2.13v-6.54h-2.13ZM-223.7-123.2h-2.13v12.61h2.13v-8.44h2.13v-1.16h-2.13v-3.02ZM-231.81-123.19v2.42c0,2.41-1.56,4.3-3.28,4.62l1.04.88c1.39-.12,3.01-1.34,3.33-2.5.33,1.16,1.96,2.39,3.33,2.5l1.04-.88c-1.72-.32-3.29-2.19-3.29-4.62v-2.42h-2.16ZM-243.19-122.15c.63,0,1.15.64,1.15,1.49s-.52,1.49-1.15,1.49-1.17-.64-1.17-1.49.52-1.49,1.17-1.49M-243.19-123.26c-1.8,0-3.22,1.17-3.22,2.6s1.42,2.59,3.22,2.59,3.2-1.14,3.2-2.59-1.42-2.6-3.2-2.6M-247.18-117.62v1.1h2.9v1.86h2.13v-1.86h3.26v-1.1h-8.29ZM-237.95-123.2v7.42h-2.87v1.02h2.87v1.16h2.13v-9.6h-2.13ZM-242.68-114.04h-2.13v2.09c0,.85.63,1.37,1.48,1.37h7.95v-1.17h-7.3v-2.29ZM-259.36-122.04h2.46v1.23c0,2.39-1.56,4.28-3.29,4.6l1.06.88c1.37-.12,3.01-1.34,3.33-2.48.33,1.14,1.96,2.38,3.33,2.48l1.04-.88c-1.72-.32-3.3-2.19-3.3-4.6v-1.23h2.48v-1.16h-7.1v1.16ZM-248.65-123.2h-2.13v12.61h2.13v-12.61Z"/>
    <path class="st0" d="M-210.14-137.79h-2.13v9.32h2.13v-9.32ZM-217.15-129.66h-2.13v3.11c0,.85.61,1.37,1.46,1.37h7.69v-1.17h-7.02v-3.31ZM-218.72-137.77v2.04c0,2.3-1.56,3.9-3.29,4.22l1.05.87c1.31-.14,2.98-1.23,3.31-2.32.38,1.08,2,2.19,3.34,2.32l1.02-.87c-1.7-.32-3.28-1.89-3.28-4.22v-2.04h-2.16ZM-230.36-135.05c.68,0,1.24.79,1.24,1.74s-.57,1.75-1.24,1.75-1.24-.79-1.24-1.75.58-1.74,1.24-1.74M-225.21-132.51h-2.02c.08-.26.13-.53.13-.81,0-.14-.02-.26-.03-.4h1.92v1.2ZM-226.59-135.37v-1.13h-2.69v-1.28h-2.13v1.28h-2.69v1.13h1.56c-.66.52-1.07,1.25-1.07,2.06,0,1.55,1.48,2.83,3.26,2.83.93,0,1.78-.35,2.36-.9h2.79v.91h2.13v-7.34h-2.13v2.97h-2.44c-.14-.2-.32-.38-.5-.53h1.56ZM-225.21-125.19h2.13v-4.45h-9.5v1.16h7.37v3.29ZM-243.6-135.05c.68,0,1.24.79,1.24,1.74s-.57,1.75-1.24,1.75-1.24-.79-1.24-1.75.58-1.74,1.24-1.74M-239.85-135.37v-1.13h-2.69v-1.3h-2.13v1.3h-2.69v1.13h1.56c-.65.52-1.06,1.25-1.06,2.06,0,1.55,1.48,2.83,3.26,2.83s3.26-1.28,3.26-2.83c0-.81-.41-1.54-1.07-2.06h1.56ZM-236.61-137.81h-2.13v7.33h2.13v-3.56h2.13v-1.17h-2.13v-2.59ZM-238.74-125.19h2.13v-4.45h-9.35v1.16h7.23v3.29ZM-251.95-125.18v-8.03h1.26v8.03h2.02v-12.61h-2.02v3.43h-1.26v-3.43h-2.02v7.23c-.33.14-.87.27-1.59.27h-2.13v-6.32h2.65v-1.17h-4.74v7.33c0,.82.57,1.34,1.46,1.34h2.68c.77,0,1.31-.2,1.67-.44v4.38h2.02Z"/>
  </g>
  <g>
    <g>
      <path class="st0" d="M-156.34-126.96c-5.84,0-10.58,4.74-10.58,10.58s4.74,10.58,10.58,10.58,10.58-4.74,10.58-10.58-4.74-10.58-10.58-10.58ZM-156.33-108.19c-4.52,0-8.19-3.67-8.19-8.19s3.67-8.19,8.19-8.19,8.19,3.67,8.19,8.19-3.67,8.19-8.19,8.19Z"/>
      <path class="st0" d="M-156.34-138.55c-1.13,0-2.21.2-3.23.53v2.54c.99-.43,2.09-.68,3.24-.68,4.52,0,8.19,3.67,8.19,8.19s-3.67,8.19-8.19,8.19c-1.15,0-2.25-.24-3.24-.68v2.54c1.02.33,2.1.53,3.23.53,5.84,0,10.58-4.74,10.58-10.58s-4.74-10.58-10.58-10.58Z"/>
      <rect class="st0" x="-157.93" y="-142.99" width=".78" height="2.38"/>
      <rect class="st0" x="-159.58" y="-142.99" width=".78" height="2.38"/>
      <rect class="st0" x="-151.33" y="-142.99" width=".78" height="2.38"/>
      <rect class="st0" x="-149.69" y="-145.37" width=".78" height="4.77"/>
      <rect class="st0" x="-148.04" y="-145.37" width=".78" height="4.77"/>
      <rect class="st0" x="-156.28" y="-142.99" width=".78" height="2.38"/>
      <rect class="st0" x="-154.63" y="-142.99" width=".78" height="2.38"/>
      <rect class="st0" x="-152.98" y="-142.99" width=".78" height="2.38"/>
    </g>
    <path class="st0" d="M-191.87-130.6c0-2.01-1.63-3.64-3.64-3.64h-2.6v7.28h2.6c2.01,0,3.64-1.63,3.64-3.64ZM-197.02-133.15h1.51c1.41,0,2.55,1.15,2.55,2.56s-1.15,2.55-2.55,2.55h-1.51v-5.11Z"/>
    <polygon class="st0" points="-186.04 -128.04 -189.72 -128.04 -189.72 -130.23 -186.54 -130.23 -186.54 -131.32 -189.72 -131.32 -189.72 -133.15 -186.04 -133.15 -186.04 -134.24 -190.8 -134.24 -190.8 -126.96 -186.04 -126.96 -186.04 -128.04"/>
    <path class="st0" d="M-181.99-131.31h-1.06c-.51,0-.92-.41-.92-.92s.41-.92.92-.92h2.08v-1.09h-2.08c-1.1,0-2,.9-2,2s.9,2,2,2h1.06c.6,0,1.09.49,1.09,1.09s-.49,1.09-1.09,1.09h-2.61v1.09h2.61c1.2,0,2.18-.98,2.18-2.18s-.98-2.18-2.18-2.18Z"/>
    <rect class="st0" x="-178.67" y="-134.24" width="1.09" height="7.28"/>
    <path class="st0" d="M-173.32-129.93h2.38v1.35c-.48.4-1.07.63-1.71.63-1.45,0-2.64-1.18-2.64-2.64s1.18-2.64,2.64-2.64c.7,0,1.37.27,1.86.77l.77-.77c-.7-.7-1.64-1.09-2.63-1.09-2.05,0-3.72,1.67-3.72,3.72s1.67,3.72,3.72,3.72c.99,0,1.93-.39,2.63-1.09l.16-.16v-2.89h-3.47v1.09Z"/>
    <polygon class="st0" points="-181.14 -139.36 -177.66 -135.59 -176.87 -136.32 -179.96 -139.67 -177.24 -142.35 -178.01 -143.12 -181.14 -140.02 -181.14 -142.99 -182.23 -142.99 -182.23 -135.7 -181.14 -135.7 -181.14 -139.36"/>
    <path class="st0" d="M-163.09-138.51c0,1-.81,1.81-1.81,1.81s-1.81-.81-1.81-1.81v-4.47h-1.09v4.47c0,1.6,1.3,2.9,2.9,2.9s2.9-1.3,2.9-2.9v-4.47h-1.09v4.47Z"/>
    <polygon class="st0" points="-172.54 -140.56 -174.86 -142.99 -175.8 -142.99 -175.8 -135.7 -174.72 -135.7 -174.72 -141.27 -172.54 -138.99 -170.4 -141.23 -170.4 -135.7 -169.32 -135.7 -169.32 -142.99 -170.23 -142.99 -172.54 -140.56"/>
    <polygon class="st0" points="-162 -134.24 -163.09 -134.24 -163.09 -128.87 -167.56 -134.24 -168.49 -134.24 -168.49 -126.96 -167.4 -126.96 -167.4 -132.35 -162.91 -126.96 -162 -126.96 -162 -134.24"/>
  </g>
</svg>